<svg width="18" height="18" viewBox="0 0 18 18" fill="none" xmlns="http://www.w3.org/2000/svg">
<path d="M12.8645 11.184H12.0515L11.7633 10.9092C12.8048 9.7185 13.379 8.19032 13.3791 6.60835C13.3682 4.84499 12.6573 3.15817 11.4028 1.9189C10.1483 0.679643 8.4529 -0.0105558 6.68953 0.000122074C4.92617 -0.0105558 3.23078 0.679643 1.97627 1.9189C0.721763 3.15817 0.0108848 4.84499 0 6.60835C0.0177248 7.87978 0.396784 9.11993 1.09292 10.184C1.78905 11.2481 2.77353 12.0921 3.9314 12.6177C5.08928 13.1432 6.37276 13.3285 7.63199 13.1519C8.89122 12.9753 10.0742 12.4441 11.0429 11.6204L11.3208 11.9054V12.7082L16.4665 17.7819L18 16.267L12.8645 11.184ZM6.68953 11.184C6.08295 11.1931 5.4806 11.0815 4.91755 10.8556C4.3545 10.6298 3.84197 10.2942 3.4098 9.86851C2.97762 9.44276 2.63442 8.93533 2.40017 8.37573C2.16591 7.81612 2.04527 7.21552 2.04527 6.60887C2.04527 6.00221 2.16591 5.40161 2.40017 4.84201C2.63442 4.2824 2.97762 3.77497 3.4098 3.34923C3.84197 2.92349 4.3545 2.58794 4.91755 2.3621C5.4806 2.13626 6.08295 2.02464 6.68953 2.03374C7.29612 2.02464 7.89847 2.13626 8.46152 2.3621C9.02457 2.58794 9.53709 2.92349 9.96927 3.34923C10.4014 3.77497 10.7446 4.2824 10.9789 4.84201C11.2132 5.40161 11.3338 6.00221 11.3338 6.60887C11.3338 7.21552 11.2132 7.81612 10.9789 8.37573C10.7446 8.93533 10.4014 9.44276 9.96927 9.86851C9.53709 10.2942 9.02457 10.6298 8.46152 10.8556C7.89847 11.0815 7.29612 11.1931 6.68953 11.184Z" fill="black" fill-opacity="0.4"/>
</svg>
